<?xml version="1.0" standalone="no"?>
<!DOCTYPE svg PUBLIC "-//W3C//DTD SVG 20010904//EN" "http://www.w3.org/TR/2001/REC-SVG-20010904/DTD/svg10.dtd">
<svg version="1.0" xmlns="http://www.w3.org/2000/svg"
  width="300.000000pt" height="300.000000pt" viewBox="0 0 300.000000 300.000000"
  preserveAspectRatio="xMidYMid meet">

  <g transform="translate(0.000000,300.000000) scale(0.100000,-0.100000)"
    fill="#202459" stroke="none">
    <path
      d="M96 2950 c-15 -5 -37 -17 -48 -27 -50 -45 -48 25 -48 -1453 l0 -1382
21 -30 c44 -61 -39 -58 1471 -58 1336 0 1384 1 1425 19 23 11 50 32 60 47 17
27 18 90 21 1389 2 908 0 1372 -7 1395 -6 20 -24 49 -41 65 l-31 30 -542 5
c-926 9 -2251 9 -2281 0z m1603 -721 c313 -83 548 -377 552 -688 1 -86 -10
-123 -49 -164 -52 -55 -73 -61 -267 -67 -189 -6 -202 -9 -246 -57 -62 -66 -74
-135 -39 -223 54 -138 -9 -258 -144 -274 -169 -21 -405 79 -548 232 -86 92
-146 204 -184 342 -27 98 -25 272 4 375 69 240 250 431 484 509 144 49 291 53
437 15z" />
    <path d="M1436 2029 c-35 -41 -34 -83 3 -120 71 -71 185 4 147 96 -27 64 -106
77 -150 24z" />
    <path
      d="M1094 1870 c-32 -13 -54 -50 -54 -91 0 -52 48 -93 99 -85 96 15 109
144 19 175 -36 13 -36 13 -64 1z" />
    <path
      d="M1844 1870 c-32 -13 -54 -50 -54 -91 0 -52 48 -93 99 -85 96 15 109
144 19 175 -36 13 -36 13 -64 1z" />
    <path
      d="M975 1478 c-15 -14 -28 -38 -32 -60 -5 -32 -1 -41 25 -68 51 -51 124
-37 152 30 35 84 -75 158 -145 98z" />
  </g>
</svg>